HIERARCHY
ROOT Hips
{
	OFFSET 0.000000 0.000000 0.000000
	CHANNELS 6 Xposition Yposition Zposition Zrotation Yrotation Xrotation 
	JOINT LeftUpLeg_virtual
	{
		OFFSET 0.000000 0.000000 0.000000
		CHANNELS 3 Zrotation Yrotation Xrotation
		JOINT LeftUpLeg
		{
			OFFSET 8.479694 -4.795517 -0.379053
			CHANNELS 3 Zrotation Yrotation Xrotation
			JOINT LeftLeg
			{
				OFFSET 0.485052 -32.551468 0.112863
				CHANNELS 3 Zrotation Yrotation Xrotation
				JOINT LeftFoot
				{
					OFFSET 0.438033 -32.635670 -3.012641
					CHANNELS 3 Zrotation Yrotation Xrotation
					JOINT LeftToeBase
					{
						OFFSET 0.970169 -13.225353 11.864223
						CHANNELS 3 Zrotation Yrotation Xrotation
						End Site
						{
							OFFSET 0.000000 0.000000 0.000000
						}
					}
				}
			}
		}
	}
	JOINT RightUpLeg_virtual
	{
		OFFSET 0.000000 0.000000 0.000000
		CHANNELS 3 Zrotation Yrotation Xrotation
		JOINT RightUpLeg
		{
			OFFSET -8.479694 -4.795517 -0.379053
			CHANNELS 3 Zrotation Yrotation Xrotation
			JOINT RightLeg
			{
				OFFSET -0.484100 -32.551483 0.112903
				CHANNELS 3 Zrotation Yrotation Xrotation
				JOINT RightFoot
				{
					OFFSET -0.438985 -32.635651 -3.012681
					CHANNELS 3 Zrotation Yrotation Xrotation
					JOINT RightToeBase
					{
						OFFSET -0.970169 -13.225354 11.864223
						CHANNELS 3 Zrotation Yrotation Xrotation
						End Site
						{
							OFFSET 0.000000 0.000000 0.000000
						}
					}
				}
			}
		}
	}
	JOINT Spine_virtual
	{
		OFFSET 0.000000 0.000000 0.000000
		CHANNELS 3 Zrotation Yrotation Xrotation
		JOINT Spine
		{
			OFFSET 0.000000 7.722015 1.166203
			CHANNELS 3 Zrotation Yrotation Xrotation
			JOINT Spine1
			{
				OFFSET 0.000000 12.024086 0.248766
				CHANNELS 3 Zrotation Yrotation Xrotation
				JOINT Spine2
				{
					OFFSET -0.000000 11.503036 -0.491240
					CHANNELS 3 Zrotation Yrotation Xrotation
					JOINT Neck_virtual
					{
						OFFSET 0.000000 0.000000 0.000000
						CHANNELS 3 Zrotation Yrotation Xrotation
						JOINT Neck
						{
							OFFSET 0.000000 18.430687 -3.123054
							CHANNELS 3 Zrotation Yrotation Xrotation
							JOINT Head
							{
								OFFSET -0.000000 9.051071 1.034021
								CHANNELS 3 Zrotation Yrotation Xrotation
								End Site
								{
									OFFSET 0.000000 0.000000 0.000000
								}
							}
						}
					}
					JOINT LeftShoulder_virtual
					{
						OFFSET 0.000000 0.000000 0.000000
						CHANNELS 3 Zrotation Yrotation Xrotation
						JOINT LeftShoulder
						{
							OFFSET 6.197824 13.665230 -4.064723
							CHANNELS 3 Zrotation Yrotation Xrotation
							JOINT LeftArm
							{
								OFFSET 7.778132 -0.187073 -1.709282
								CHANNELS 3 Zrotation Yrotation Xrotation
								JOINT LeftForeArm
								{
									OFFSET 21.954697 0.000000 -2.041093
									CHANNELS 3 Zrotation Yrotation Xrotation
									JOINT LeftHand
									{
										OFFSET 22.992908 0.000000 -0.870901
										CHANNELS 3 Zrotation Yrotation Xrotation
										End Site
										{
											OFFSET 0.000000 0.000000 0.000000
										}
									}
								}
							}
						}
					}
					JOINT RightShoulder_virtual
					{
						OFFSET 0.000000 0.000000 0.000000
						CHANNELS 3 Zrotation Yrotation Xrotation
						JOINT RightShoulder
						{
							OFFSET -6.197824 13.665230 -4.064723
							CHANNELS 3 Zrotation Yrotation Xrotation
							JOINT RightArm
							{
								OFFSET -7.778132 -0.187073 -1.709282
								CHANNELS 3 Zrotation Yrotation Xrotation
								JOINT RightForeArm
								{
									OFFSET -21.954697 0.000000 -2.041093
									CHANNELS 3 Zrotation Yrotation Xrotation
									JOINT RightHand
									{
										OFFSET -22.992908 0.000000 -0.870901
										CHANNELS 3 Zrotation Yrotation Xrotation
										End Site
										{
											OFFSET 0.000000 0.000000 0.000000
										}
									}
								}
							}
						}
					}
				}
			}
		}
	}
}
MOTION
Frames: 5
Frame Time: 0.033333
18.482727 81.022705 3.819222 179.959461 -10.304169 -179.990238 -0.580107 0.188943 15.890947 6.729050 -7.041494 -23.031758 1.759846 3.541468 25.078499 0.242495 -5.882439 -10.477903 0.000000 0.000000 0.000000 3.947584 -0.937814 16.978177 -6.612630 6.071669 -24.328999 0.139986 7.579620 30.344348 11.208675 5.087012 -15.097104 0.000000 0.000000 0.000000 4.648057 2.204767 4.225615 0.283337 -2.624446 -9.401206 -0.240197 -2.072359 7.463381 -0.023376 -0.000793 0.014896 -0.599006 -0.383850 7.974943 -1.573566 4.187390 -4.899031 0.000000 0.000000 0.000000 0.965607 0.245552 5.273521 -15.875947 -6.648297 2.337737 -49.845259 -20.998428 -0.868265 5.190956 -33.294570 3.225958 0.000000 0.000000 0.000000 -3.583632 1.728269 4.441815 29.909357 2.247252 9.454392 41.606569 17.024830 1.222413 -2.048125 30.752729 -2.775815 0.000000 0.000000 0.000000 
18.551336 81.028572 3.798180 -179.961811 -10.171262 179.988407 -0.542919 0.007093 15.874051 6.597728 -6.423652 -22.978674 1.714712 3.830381 25.400408 0.150150 -5.902162 -10.410308 0.000000 0.000000 0.000000 3.981859 -0.991091 16.958989 -6.630825 6.342250 -24.248488 0.128311 7.721930 30.366427 11.202355 5.032999 -15.004696 0.000000 0.000000 0.000000 4.687457 2.146816 4.125845 0.362722 -2.568661 -9.389420 -0.280755 -2.061238 7.512626 0.009490 0.010220 0.013975 -0.641749 -0.477197 7.974413 -1.600686 4.187443 -4.918647 0.000000 0.000000 0.000000 0.917559 0.242988 5.271727 -15.898121 -6.569417 2.335886 -49.930807 -20.851809 -0.932356 5.064793 -33.212922 3.395261 0.000000 0.000000 0.000000 -3.590761 1.709136 4.455682 29.964074 2.201772 9.392150 41.755282 16.831821 1.440238 -1.969264 30.432608 -2.697700 0.000000 0.000000 0.000000 
18.637995 81.021217 3.760755 179.957699 -10.059883 179.990415 -0.620600 -0.159213 15.876479 6.616781 -6.444589 -22.935205 1.742679 3.931634 25.489617 0.124742 -5.801925 -10.394243 0.000000 0.000000 0.000000 3.906698 -1.121878 16.883968 -6.578729 6.287404 -24.222327 0.147711 7.863002 30.392115 11.264490 5.089883 -15.011026 0.000000 0.000000 0.000000 4.588343 2.065901 4.041163 0.358059 -2.503271 -9.341468 -0.270475 -2.055827 7.535950 0.022372 0.002811 0.008929 -0.659204 -0.419095 8.010284 -1.599567 4.131453 -4.923489 0.000000 0.000000 0.000000 0.909144 0.235400 5.299272 -15.860384 -6.372558 2.324447 -50.156241 -20.271383 -1.174537 5.074022 -32.918578 3.551861 0.000000 0.000000 0.000000 -3.632653 1.712132 4.468880 29.960895 2.192511 9.368248 42.011264 16.214495 1.701599 -1.978738 29.933290 -2.711667 0.000000 0.000000 0.000000 
18.702202 81.009483 3.705795 179.993229 -9.937392 179.981536 -0.639505 -0.289589 15.864781 6.692140 -6.349870 -22.922644 1.779588 3.976142 25.618494 0.041560 -5.743050 -10.423446 0.000000 0.000000 0.000000 3.878649 -1.201473 16.845437 -6.477923 6.386091 -24.212664 0.173204 7.918752 30.443338 11.268226 5.083259 -14.997548 0.000000 0.000000 0.000000 4.569537 2.013138 3.984628 0.411004 -2.414205 -9.292654 -0.344486 -2.037723 7.574510 -0.026984 0.022396 0.018104 -0.589727 -0.430345 8.041175 -1.634210 4.132247 -4.887451 0.000000 0.000000 0.000000 0.979287 0.229418 5.347628 -15.756348 -6.112792 2.296399 -50.505851 -19.210126 -1.611969 5.146970 -32.279539 3.420788 0.000000 0.000000 0.000000 -3.562624 1.753726 4.472490 30.025614 2.043821 9.466774 42.364211 15.436282 2.072722 -2.032209 29.222285 -2.736948 0.000000 0.000000 0.000000 
18.745821 80.990295 3.625316 -179.980539 -9.898965 -179.967589 -0.698557 -0.452975 15.844797 6.724513 -6.182554 -22.969354 1.801467 3.962218 25.825639 -0.079079 -5.724242 -10.492460 0.000000 0.000000 0.000000 3.842895 -1.285941 16.826244 -6.357333 6.373777 -24.237888 0.173872 7.987473 30.529901 11.240299 5.065031 -15.027770 0.000000 0.000000 0.000000 4.543166 1.866334 3.901679 0.463628 -2.348504 -9.248391 -0.332667 -2.085288 7.568219 0.017606 -0.011913 -0.006845 -0.643704 -0.429447 8.086714 -1.669638 4.121974 -4.849204 0.000000 0.000000 0.000000 0.923486 0.285002 5.407170 -15.582890 -5.688950 2.215850 -51.040125 -17.711881 -2.024527 5.222771 -31.220091 3.541449 0.000000 0.000000 0.000000 -3.593255 1.724096 4.570635 30.031567 2.024478 9.618649 42.809075 14.552382 2.303145 -2.091098 28.186338 -2.822868 0.000000 0.000000 0.000000 
